# xmcd CD database file generated by OrangeCD 5.0
#
# Track frame offsets:
#	150
#	18358
#	45095
#	70660
#	89466
#	127887
#	152017
#	171499
#	200601
#	215978
#	231757
#
# Disc length: 3401 seconds
#
# Revision: 1
# Processed by: cddbd v1.4PL0 Copyright (c) Steve Scherf et al.
# Submitted via: OrangeCD 5.0
#
DISCID=910d470b
DTITLE=Daniel Smith Blues Band - Dreamtime
DYEAR=1900
DGENRE=Blues
TTITLE0=Barrelhouse Sting
TTITLE1=I Gotta Move
TTITLE2=Dreamtime
TTITLE3=Playing Your Fool
TTITLE4=Just Because
TTITLE5=Preachin' The Blues
TTITLE6=Fast Train Boogie
TTITLE7=She's My Baby
TTITLE8=The Professor
TTITLE9=No Time For You
TTITLE10=Boogie Bash
EXTD=
EXTT0=
EXTT1=
EXTT2=
EXTT3=
EXTT4=
EXTT5=
EXTT6=
EXTT7=
EXTT8=
EXTT9=
EXTT10=
PLAYORDER=
